<svg data-v-c56ea0f0="" width="16" height="8" viewBox="0 0 16 8" fill="none" xmlns="http://www.w3.org/2000/svg"><path d="M2.67502 7.07501C2.55002 7.07501 2.42502 7.02501 2.35002 6.92501L0.625024 4.87501C0.200024 4.37501 0.200024 3.62501 0.625024 3.12501L2.35002 1.07501C2.50002 0.900006 2.77502 0.875007 2.97502 1.02501C3.15002 1.17501 3.17502 1.45001 3.02502 1.65001L1.40002 3.57501H15.25C15.5 3.57501 15.7 3.77501 15.7 4.02501C15.7 4.27501 15.5 4.47501 15.25 4.47501H1.40002L3.02502 6.40001C3.17502 6.57501 3.15002 6.85001 2.97502 7.02501C2.87502 7.05001 2.77502 7.07501 2.67502 7.07501Z" fill="white"></path></svg>