<svg width="24" height="24" viewBox="0 0 24 24" fill="none" xmlns="http://www.w3.org/2000/svg" data-v-b22192c0=""><path d="M21.4875 7.38749H20.3625L17.8125 0.899993C17.6625 0.562493 17.2875 0.412493 16.95 0.524993C16.6125 0.674993 16.4625 1.04999 16.575 1.38749L18.9375 7.42499H5.02505L7.38755 1.38749C7.53755 1.04999 7.35005 0.674993 7.01255 0.524993C6.67505 0.374993 6.30005 0.562493 6.15005 0.899993L3.60005 7.38749H2.47505C1.91255 7.38749 1.42505 7.83749 1.42505 8.43749V11.625C1.42505 12.1875 1.87505 12.675 2.47505 12.675H2.51255L3.48755 21.225C3.63755 22.5375 4.76255 23.55 6.11255 23.55H17.8125C19.1625 23.55 20.2875 22.5375 20.4375 21.225L21.4125 12.675H21.4501C22.0126 12.675 22.5 12.225 22.5 11.625V8.43749C22.5375 7.87499 22.0875 7.38749 21.4875 7.38749ZM2.77505 8.69999H21.225V11.325H2.77505V8.69999ZM19.1625 21.0375C19.0875 21.7125 18.525 22.2 17.85 22.2H6.15005C5.47505 22.2 4.91255 21.7125 4.83755 21.0375L3.86255 12.6375H20.1376L19.1625 21.0375Z" fill="#2D2A24"></path> <path d="M8.06257 19.05C8.43757 19.05 8.73757 18.75 8.73757 18.375V15.4875C8.73757 15.1125 8.43757 14.8125 8.06257 14.8125C7.68757 14.8125 7.38757 15.1125 7.38757 15.4875V18.375C7.38757 18.75 7.68757 19.05 8.06257 19.05Z" fill="#2D2A24"></path> <path d="M15.9376 19.05C16.3126 19.05 16.6126 18.75 16.6126 18.375V15.4875C16.6126 15.1125 16.3126 14.8125 15.9376 14.8125C15.5626 14.8125 15.2626 15.1125 15.2626 15.4875V18.375C15.3001 18.75 15.6001 19.05 15.9376 19.05Z" fill="#2D2A24"></path></svg>