<svg width="14" height="14" viewBox="0 0 14 14" fill="none" xmlns="http://www.w3.org/2000/svg" class="w-4 h-4"><path d="M7.54692 6.99999L13.6063 0.918738C13.7594 0.765613 13.7594 0.524988 13.6063 0.371863C13.4532 0.218738 13.2125 0.218738 13.0594 0.371863L7.00005 6.45311L0.918799 0.393738C0.765674 0.240613 0.525049 0.240613 0.371924 0.393738C0.218799 0.546863 0.218799 0.787488 0.371924 0.940613L6.45317 6.99999L0.393799 13.0812C0.240674 13.2344 0.240674 13.475 0.393799 13.6281C0.459424 13.6937 0.568799 13.7375 0.656299 13.7375C0.743799 13.7375 0.853174 13.6937 0.918799 13.6281L7.00005 7.54686L13.0594 13.6281C13.125 13.6937 13.2344 13.7375 13.3219 13.7375C13.4094 13.7375 13.5188 13.6937 13.5844 13.6281C13.7375 13.475 13.7375 13.2344 13.5844 13.0812L7.54692 6.99999Z" fill="#2D2A24" class="fill-current"></path></svg>