<svg xmlns="http://www.w3.org/2000/svg" fill="none" viewBox="0 0 182 36" height="36" width="182">
<g clip-path="url(#clip0_165_154)">
<path fill="#2D2A24" d="M7.945 3.49999H10.72V23.575C10.72 26.075 10.005 26.575 8.17 27.735V28.07H19.17V27.735C17.335 26.575 16.585 26.05 16.585 23.575V3.49999H19.355C23.14 3.49999 24.565 6.49999 26.89 9.86999H27.34L26.2 1.60999C25.4613 1.77222 24.7062 1.84773 23.95 1.83499H3.41C2.6538 1.84773 1.8987 1.77222 1.16 1.60999L0 9.85499H0.45C2.735 6.49999 4.16 3.49999 7.945 3.49999Z"></path>
<path fill="#2D2A24" d="M31.5 4.2V23.835C31.5 26.31 31.085 26.65 29.5 27.735V28.07H39.13V27.735C37.515 26.65 37.105 26.31 37.105 23.835V18.215C37.105 14.505 38.83 12.82 40.965 12.82C43.1 12.82 43.965 14.355 43.965 16.415V23.835C43.965 26.31 43.55 26.65 41.94 27.735V28.07H51.57V27.735C49.96 26.65 49.57 26.31 49.57 23.835V15.74C49.57 12.03 47.735 9.24 43.54 9.24C40.575 9.24 38.29 11 37.13 14.3V0H29.13V0.34C30.66 1.31 31.5 1.835 31.5 4.2Z"></path>
<path fill="#2D2A24" d="M63.45 28.445C67.76 28.445 70.795 26.275 71.845 22.375L71.06 22.115C69.75 24.735 67.91 25.675 65.4 25.675C61.84 25.675 59.705 22.75 59.705 18.515H72.205C72.205 12.705 69.17 9.22 63.475 9.22C58.115 9.22 53.805 13.005 53.805 18.89C53.82 25.185 58.13 28.445 63.45 28.445ZM63.45 10.83C66 10.83 66.56 13.795 66.6 16.83H59.78C60 13.42 61.055 10.83 63.45 10.83Z"></path>
<path fill="#2D2A24" d="M135.005 26.535C131.005 26.535 128.41 23.76 125.71 19.45H125L125.525 28.45H126.085L127.735 26.13C129.907 27.5678 132.437 28.3712 135.04 28.45C140.54 28.45 145.01 25.45 145.01 20.17C145.01 15.745 142.465 13.795 138.34 12.485L134.78 11.4C131.895 10.5 130.62 9.37498 130.62 7.01498C130.62 4.65498 132.495 3.15499 135.08 3.15499C138.715 3.15499 140.7 5.58998 143.25 9.48498H143.75L143.635 1.48499H143.135L141.52 3.35999C139.577 2.17191 137.352 1.52458 135.075 1.48499C129.23 1.48499 125.445 4.55998 125.445 9.24498C125.445 13.33 127.805 15.39 132.375 16.855L135.875 17.94C138.5 18.725 139.925 19.94 139.925 22.325C139.915 25 138.115 26.535 135.005 26.535Z"></path>
<path fill="#2D2A24" d="M153.15 6.78498C153.585 6.79846 154.019 6.72391 154.425 6.56581C154.83 6.40771 155.2 6.1693 155.511 5.86489C155.823 5.56047 156.07 5.19632 156.237 4.79424C156.404 4.39217 156.489 3.96046 156.485 3.52498C156.452 2.66742 156.088 1.85606 155.469 1.2611C154.851 0.666136 154.026 0.333801 153.168 0.333801C152.309 0.333801 151.484 0.666136 150.866 1.2611C150.247 1.85606 149.883 2.66742 149.85 3.52498C149.845 3.95782 149.928 4.38719 150.092 4.78752C150.257 5.18785 150.5 5.55094 150.808 5.85514C151.116 6.15935 151.482 6.39845 151.885 6.5582C152.287 6.71795 152.717 6.79508 153.15 6.78498Z"></path>
<path fill="#2D2A24" d="M150.485 13.79V23.835C150.485 26.31 150.07 26.65 148.46 27.735V28.07H158.09V27.735C156.48 26.65 156.09 26.31 156.09 23.835V9.595H148.15V9.93C149.695 10.945 150.485 11.43 150.485 13.79Z"></path>
<path fill="#2D2A24" d="M162.65 4.2V23.835C162.65 26.31 162.235 26.65 160.65 27.735V28.07H170.28V27.735C168.67 26.65 168.28 26.31 168.28 23.835V0H160.28V0.34C161.8 1.31 162.65 1.835 162.65 4.2Z"></path>
<path fill="#2D2A24" d="M174.695 4.2V23.835C174.695 26.31 174.285 26.65 172.695 27.735V28.07H182.33V27.735C180.715 26.65 180.305 26.31 180.305 23.835V0H172.305V0.34C173.835 1.31 174.695 1.835 174.695 4.2Z"></path>
<path fill="#2D2A24" d="M182 35H1V36H182V35Z"></path>
</g>
<defs>
<clipPath id="clip0_165_154">
<rect fill="white" height="36" width="182"></rect>
</clipPath>
</defs>
</svg>
