<svg width="24" height="24" viewBox="0 0 24 24" fill="none" xmlns="http://www.w3.org/2000/svg"><path d="M12.0002 0.487488C6.7877 0.487488 2.5127 4.61249 2.5127 9.63749C2.5127 13.65 8.2502 20.2875 10.7252 22.9875C11.0627 23.3625 11.5127 23.55 12.0002 23.55C12.4877 23.55 12.9377 23.3625 13.2752 22.9875C15.7502 20.325 21.4877 13.65 21.4877 9.63749C21.4877 4.57499 17.2127 0.487488 12.0002 0.487488ZM12.3002 22.0875C12.1127 22.275 11.8502 22.275 11.7002 22.0875C9.8627 20.1 3.8252 13.275 3.8252 9.63749C3.8252 5.28749 7.5002 1.79999 12.0002 1.79999C16.5002 1.79999 20.1752 5.32499 20.1752 9.63749C20.1752 13.275 14.1377 20.0625 12.3002 22.0875Z" fill="#2D2A24"></path> <path d="M12.0002 5.88751C9.78769 5.88751 7.9502 7.68751 7.9502 9.93751C7.9502 12.15 9.75019 13.9875 12.0002 13.9875C14.2502 13.9875 16.0502 12.1875 16.0502 9.93751C16.0502 7.68751 14.2127 5.88751 12.0002 5.88751ZM12.0002 12.6375C10.5002 12.6375 9.2627 11.4 9.2627 9.90001C9.2627 8.40001 10.5002 7.16251 12.0002 7.16251C13.5002 7.16251 14.7377 8.40001 14.7377 9.90001C14.7377 11.4 13.5002 12.6375 12.0002 12.6375Z" fill="#2D2A24"></path></svg>