<svg width="24" height="24" viewBox="0 0 24 24" fill="none" xmlns="http://www.w3.org/2000/svg"><path d="M23.2875 21.375L16.725 16.05C17.925 14.475 18.6 12.5625 18.6 10.5375C18.6 8.10001 17.6625 5.85001 15.9375 4.12501C12.4125 0.600012 6.67505 0.600012 3.11255 4.12501C1.42505 5.81251 0.487549 8.10001 0.487549 10.5C0.487549 12.9375 1.42505 15.1875 3.15005 16.9125C4.91255 18.675 7.23755 19.575 9.56255 19.575C11.85 19.575 14.1 18.7125 15.8625 17.025L22.5 22.3875C22.6125 22.5 22.7625 22.5375 22.9125 22.5375C23.1 22.5375 23.2875 22.4625 23.4375 22.3125C23.625 22.0125 23.5875 21.6 23.2875 21.375ZM4.05005 16.0125C2.58755 14.55 1.80005 12.6 1.80005 10.5C1.80005 8.40001 2.58755 6.48751 4.08755 5.02501C5.58755 3.52501 7.57505 2.77501 9.56255 2.77501C11.55 2.77501 13.5375 3.52501 15.0375 5.02501C16.5 6.48751 17.325 8.43751 17.325 10.5C17.325 12.5625 16.4625 14.55 15 16.0125C12 19.0125 7.08755 19.0125 4.05005 16.0125Z" fill="#2D2A24"></path></svg>