<svg width="30" height="30" viewBox="0 0 30 30" fill="none" xmlns="http://www.w3.org/2000/svg" class="inline"><path d="M25.4531 3.375L15.5625 0.65625C15.1875 0.5625 14.8125 0.5625 14.4844 0.65625L4.54687 3.375C3.65625 3.60937 3.04688 4.45312 3.04688 5.39062V12.6094C3.04688 20.0156 7.45312 26.5781 14.2031 29.2969C14.4375 29.3906 14.7187 29.4375 15 29.4375C15.2813 29.4375 15.5156 29.3906 15.7969 29.2969C22.5938 26.5312 26.9531 19.9687 26.9531 12.5625V5.34375C26.9531 4.45312 26.3437 3.60937 25.4531 3.375ZM25.3125 12.5156C25.3125 19.1719 21.2344 25.2656 15.1875 27.7031C15.0938 27.75 14.9531 27.75 14.8594 27.7031C8.67188 25.2656 4.6875 19.3125 4.6875 12.5625V5.34375C4.6875 5.15625 4.82812 4.96875 5.01562 4.92188L14.9062 2.20312C14.9531 2.20312 15 2.20312 15 2.20312C15.0469 2.20312 15.0938 2.20312 15.0938 2.20312L24.9844 4.92188C25.1719 4.96875 25.3125 5.15625 25.3125 5.34375V12.5156V12.5156Z" fill="#00AB84"></path> <path d="M20.6719 10.6406L13.7813 16.4063L10.5938 13.7344C10.2657 13.4531 9.75007 13.5 9.42195 13.8281C9.09382 14.1563 9.18757 14.6719 9.5157 15L13.2188 18.0938C13.3594 18.2344 13.5469 18.2813 13.7344 18.2813C13.9219 18.2813 14.1094 18.2344 14.2501 18.0938L21.6563 11.8594C21.9844 11.5781 22.0313 11.0625 21.7501 10.6875C21.5157 10.4063 21.0001 10.3594 20.6719 10.6406Z" fill="#00AB84"></path></svg>