<svg width="24" height="24" viewBox="0 0 24 24" fill="none" xmlns="http://www.w3.org/2000/svg" data-v-13dc0b88=""><path d="M22.875 11.3625H1.12501C0.750012 11.3625 0.450012 11.6625 0.450012 12.0375C0.450012 12.4125 0.750012 12.675 1.12501 12.675H22.875C23.25 12.675 23.55 12.375 23.55 12C23.55 11.625 23.25 11.3625 22.875 11.3625Z" fill="#2D2A24"></path> <path d="M22.875 17.9625H1.12501C0.750012 17.9625 0.450012 18.2625 0.450012 18.6375C0.450012 19.0125 0.750012 19.275 1.12501 19.275H22.875C23.25 19.275 23.55 18.975 23.55 18.6C23.55 18.225 23.25 17.9625 22.875 17.9625Z" fill="#2D2A24"></path> <path d="M1.12501 6.03751H22.875C23.25 6.03751 23.55 5.73751 23.55 5.36251C23.55 4.98751 23.25 4.72501 22.875 4.72501H1.12501C0.750012 4.72501 0.450012 5.02501 0.450012 5.40001C0.450012 5.77501 0.750012 6.03751 1.12501 6.03751Z" fill="#2D2A24"></path></svg>