<svg width="24" height="24" viewBox="0 0 24 24" fill="none" xmlns="http://www.w3.org/2000/svg" data-v-13dc0b88=""><path d="M11.4467 8.35033C10.4431 -1.21982 2.76376 0.889101 1.71657 1.23816C1.68204 1.24792 1.6518 1.269 1.6307 1.29802C1.6096 1.32703 1.59886 1.3623 1.60021 1.39815M11.4467 8.35033C11.4467 8.42305 11.5194 8.35033 11.4467 8.35033ZM11.4467 8.35033C10.3122 8.68485 2.03654 10.881 1.60021 1.39815M11.4467 8.35033L1.60021 1.39815M11.4467 8.35033L11.4466 14.2843M11.5632 9.07752C11.5535 9.11225 11.5571 9.14934 11.5732 9.18159C11.5893 9.21384 11.6169 9.23895 11.6504 9.25205C20.4207 13.179 22.3405 5.25236 22.5587 4.17609C22.5667 4.14304 22.5639 4.10831 22.5508 4.07693C22.5378 4.04555 22.515 4.01914 22.4859 4.00155M11.5632 9.07752C11.825 7.92852 14.0503 -0.347195 22.4859 4.00155M11.5632 9.07752L22.4859 4.00155M6.15289 14.2843H16.9884C17.0528 14.2838 17.1166 14.2971 17.1755 14.3233C17.2344 14.3495 17.287 14.388 17.3297 14.4362C17.3724 14.4845 17.4043 14.5413 17.4232 14.6029C17.4421 14.6645 17.4476 14.7295 17.4393 14.7934L16.4503 22.8073C16.4332 22.9153 16.3787 23.0138 16.2962 23.0856C16.2138 23.1574 16.1087 23.1979 15.9994 23.2H6.99645C6.88407 23.2005 6.77553 23.159 6.69212 23.0837C6.60872 23.0084 6.55646 22.9046 6.54558 22.7927L5.70201 14.7788C5.69591 14.7161 5.70304 14.6527 5.72295 14.5929C5.74286 14.533 5.7751 14.478 5.81759 14.4314C5.86009 14.3848 5.91188 14.3476 5.96964 14.3223C6.02739 14.297 6.08982 14.284 6.15289 14.2843Z" stroke="#2D2A24" stroke-width="1.4" stroke-miterlimit="10" stroke-linecap="round"></path></svg>