<svg width="16" height="12" viewBox="0 0 16 12" xmlns="http://www.w3.org/2000/svg"> <path d="M14.2498 0.725006H1.7498C0.949805 0.725006 0.299805 1.37501 0.299805 2.17501V9.85001C0.299805 10.65 0.949805 11.3 1.7498 11.3H14.2498C15.0498 11.3 15.6998 10.65 15.6998 9.85001V2.17501C15.6998 1.37501 15.0498 0.725006 14.2498 0.725006ZM14.2498 1.60001C14.3748 1.60001 14.4748 1.62501 14.5748 1.70001L8.34981 5.47501C8.12481 5.60001 7.87481 5.60001 7.64981 5.47501L1.4248 1.70001C1.5248 1.65001 1.6248 1.60001 1.7498 1.60001H14.2498ZM14.2498 10.4H1.7498C1.4498 10.4 1.1748 10.15 1.1748 9.82501V2.57501L7.17481 6.22501C7.42481 6.37501 7.69981 6.45001 7.97481 6.45001C8.24981 6.45001 8.52481 6.37501 8.77481 6.22501L14.7748 2.57501V9.82501C14.8248 10.15 14.5498 10.4 14.2498 10.4Z"></path> </svg>