<svg width="17" height="18" viewBox="0 0 17 18" fill="none" xmlns="http://www.w3.org/2000/svg"><g clip-path="url(#clip0_406_3130)"><path d="M11.8327 2.28612C12.3545 2.28927 12.8716 2.38492 13.36 2.56862C13.7203 2.70005 14.0463 2.91132 14.3134 3.1866C14.5867 3.45195 14.7977 3.77456 14.9314 4.13122C15.1287 4.62038 15.2393 5.1402 15.258 5.66734C15.258 6.55016 15.3022 6.79735 15.3022 8.99559C15.3022 11.1938 15.3022 11.4587 15.258 12.3327C15.2549 12.8545 15.1592 13.3716 14.9755 13.86C14.839 14.2178 14.6285 14.5427 14.3577 14.8135C14.0869 15.0843 13.7619 15.2949 13.4041 15.4314C12.9157 15.6151 12.3986 15.7107 11.8768 15.7139C10.994 15.7139 10.7468 15.758 8.53973 15.758C6.33266 15.758 6.0325 15.758 5.16734 15.758C4.64282 15.7533 4.12308 15.6578 3.63122 15.4755C3.27456 15.3418 2.95195 15.1308 2.6866 14.8575C2.41132 14.5904 2.20005 14.2645 2.06862 13.9041C1.88492 13.4157 1.78927 12.8986 1.78612 12.3768C1.74197 11.494 1.73315 11.2468 1.73315 9.03973C1.73315 6.83266 1.73315 6.57665 1.78612 5.71148C1.79079 5.18696 1.88638 4.66722 2.06862 4.17536C2.2023 3.8187 2.41335 3.49609 2.6866 3.23074C2.95195 2.95749 3.27456 2.74644 3.63122 2.61276C4.12308 2.43052 4.64282 2.33493 5.16734 2.33026C6.05016 2.28612 8.49559 2.27729 8.49559 2.27729C8.49559 2.27729 11.3731 2.25826 11.8327 2.28612ZM5.09671 0.802969C4.41199 0.814788 3.7343 0.987303 3.0927 1.22673C2.54812 1.42302 2.05156 1.733 1.63604 2.13604C1.21709 2.54731 0.891861 3.04418 0.682584 3.5927C0.443162 4.2343 0.314788 4.91199 0.302969 5.59671C0.25 6.47953 0.25 6.76204 0.25 8.99559C0.25 11.2291 0.25 11.5205 0.302969 12.4033C0.313705 13.0852 0.44213 13.7602 0.682584 14.3985C0.889464 14.9508 1.21492 15.451 1.63604 15.864C2.04731 16.2829 2.54418 16.6081 3.0927 16.8174C3.7343 17.0568 4.41199 17.1852 5.09671 17.197C5.97953 17.2412 6.26204 17.25 8.49559 17.25C10.7291 17.25 11.0205 17.25 11.9033 17.197C12.5852 17.1863 13.2602 17.0579 13.8985 16.8174C14.4482 16.6054 14.9474 16.2807 15.3641 15.8641C15.7807 15.4474 16.1054 14.9482 16.3174 14.3985C16.5579 13.7602 16.6863 13.0852 16.697 12.4033C16.7412 11.5205 16.75 11.238 16.75 8.99559C16.75 6.75321 16.75 6.47953 16.697 5.59671C16.6852 4.91199 16.5568 4.2343 16.3174 3.5927C16.1081 3.04418 15.7829 2.54731 15.364 2.13604C14.951 1.71492 14.4508 1.38946 13.8985 1.18258C13.2602 0.94213 12.5852 0.813705 11.9033 0.802969C11.0205 0.75 8.49559 0.75 8.49559 0.75" fill="currentColor"></path><path d="M8.49537 4.76688C7.65688 4.76688 6.83724 5.01564 6.14019 5.48166C5.44313 5.94768 4.9 6.61002 4.57953 7.38484C4.25906 8.15967 4.17566 9.01216 4.33989 9.8344C4.50411 10.6566 4.90858 11.4117 5.50209 12.004C6.09561 12.5963 6.8515 12.9991 7.67408 13.1617C8.49667 13.3242 9.34898 13.239 10.1231 12.9169C10.8973 12.5948 11.5585 12.0503 12.0231 11.3523C12.4876 10.6543 12.7347 9.8341 12.7329 8.99561C12.7341 8.43922 12.6252 7.88808 12.4126 7.37392C12.1999 6.85977 11.8877 6.39274 11.4938 5.99972C11.1 5.60669 10.6323 5.29544 10.1177 5.08386C9.60312 4.87228 9.05176 4.76455 8.49537 4.76688ZM8.49537 11.75C7.95059 11.75 7.41806 11.5885 6.96509 11.2858C6.51213 10.9832 6.15909 10.553 5.95062 10.0497C5.74214 9.54638 5.6876 8.99256 5.79388 8.45825C5.90016 7.92395 6.16249 7.43316 6.5477 7.04795C6.93291 6.66274 7.4237 6.40041 7.95801 6.29413C8.49231 6.18785 9.04613 6.24239 9.54943 6.45087C10.0527 6.65934 10.4829 7.01238 10.7856 7.46534C11.0882 7.9183 11.2498 8.45084 11.2498 8.99561C11.2498 9.72613 10.9596 10.4267 10.443 10.9433C9.92648 11.4598 9.22588 11.75 8.49537 11.75Z" fill="currentColor"></path><path d="M13.8896 4.59909C13.8879 4.79427 13.8284 4.98456 13.7187 5.14599C13.609 5.30743 13.454 5.43279 13.2731 5.50627C13.0923 5.57976 12.8938 5.59808 12.7026 5.55894C12.5114 5.5198 12.336 5.42494 12.1986 5.28631C12.0612 5.14769 11.9679 4.9715 11.9305 4.77994C11.893 4.58838 11.9131 4.39003 11.9882 4.20987C12.0633 4.02971 12.19 3.87581 12.3524 3.76754C12.5148 3.65928 12.7057 3.60151 12.9008 3.6015C13.0314 3.6015 13.1607 3.62736 13.2813 3.6776C13.4018 3.72784 13.5112 3.80147 13.6031 3.89422C13.6951 3.98697 13.7677 4.09701 13.8169 4.218C13.866 4.33898 13.8908 4.46851 13.8896 4.59909Z" fill="currentColor"></path></g><defs><clipPath id="clip0_406_3130"><rect width="16.5" height="18" fill="white" transform="translate(0.25)"></rect></clipPath></defs></svg>