<svg width="18" height="18" viewBox="0 0 18 18" fill="none" xmlns="http://www.w3.org/2000/svg"><g clip-path="url(#clip0_406_3139)"><path d="M10.4461 6.05868H6.6696V17.1759H10.4461V10.7557C10.4466 10.4657 10.5109 10.1793 10.6343 9.91681C10.7578 9.65429 10.9374 9.42201 11.1606 9.23635C11.3816 9.03326 11.6513 8.89058 11.9438 8.82213C12.2362 8.75368 12.5414 8.76178 12.8297 8.84564C13.1181 8.9295 13.3799 9.08628 13.5898 9.30081C13.7997 9.51533 13.9505 9.78033 14.0277 10.0701C14.1294 10.4475 14.1762 10.8375 14.1669 11.2282V17.1481H17.9527V10.7094C17.9617 10.084 17.8836 9.46043 17.7207 8.85651C17.5174 8.00268 17.0499 7.23447 16.3846 6.66086C15.6284 6.04546 14.6784 5.71725 13.703 5.73442C13.0796 5.70369 12.4588 5.83321 11.8999 6.11059C11.3411 6.38797 10.8628 6.80392 10.511 7.31863L10.4461 7.38348V6.05868ZM4.75815 17.1759V6.05868H1.0466V17.1759H4.75815ZM2.90238 4.72461C3.13435 4.72461 3.36632 4.66902 3.58901 4.61344C3.9793 4.51746 4.32782 4.29756 4.58216 3.98681C4.83651 3.67605 4.98293 3.29125 4.9994 2.89027C5.02948 2.51338 4.94677 2.13606 4.76174 1.80619C4.57672 1.47631 4.29773 1.20873 3.96017 1.0374C3.46477 0.795542 2.90053 0.733311 2.3642 0.861378C2.02517 0.91256 1.70697 1.05652 1.44491 1.27729C1.18285 1.49806 0.987167 1.78701 0.879583 2.11206C0.75148 2.43613 0.717482 2.78969 0.78149 3.13218C0.845499 3.47466 1.00492 3.79218 1.24146 4.04831C1.45266 4.26502 1.70729 4.43479 1.9887 4.54654C2.2701 4.65829 2.57196 4.7095 2.87454 4.69682L2.90238 4.72461Z" fill="currentColor"></path><path d="M10.4464 6.05866V7.43904L10.5114 7.37419C10.8673 6.85251 11.353 6.43218 11.9207 6.15445C12.4884 5.87672 13.1187 5.75112 13.7497 5.78999C14.7251 5.77282 15.6751 6.10102 16.4313 6.71643C17.0966 7.29003 17.5641 8.05825 17.7674 8.91208C17.9303 9.516 18.0084 10.1396 17.9994 10.7649V17.25H14.1672V11.2282C14.1766 10.8375 14.1297 10.4475 14.0281 10.0701C13.9509 9.78031 13.8 9.51531 13.5901 9.30079C13.3802 9.08627 13.1184 8.92948 12.8301 8.84562C12.5417 8.76176 12.2365 8.75366 11.9441 8.82211C11.6517 8.89056 11.3819 9.03324 11.1609 9.23633C10.9378 9.42199 10.7581 9.65427 10.6347 9.91679C10.5112 10.1793 10.447 10.4657 10.4464 10.7557V17.1481H6.66992V6.03086L10.4464 6.05866Z" fill="currentColor"></path><path d="M4.75745 17.1481H1.0459V6.03088H4.75745V17.1481Z" fill="currentColor"></path><path d="M2.87454 4.69681C2.5685 4.70359 2.26454 4.64511 1.98293 4.5253C1.70132 4.40548 1.44854 4.22708 1.24146 4.00199C1.00492 3.74586 0.845499 3.42833 0.78149 3.08585C0.717482 2.74337 0.75148 2.38981 0.879583 2.06574C0.987167 1.74068 1.18285 1.45174 1.44491 1.23097C1.70697 1.0102 2.02517 0.866234 2.3642 0.815053C2.90053 0.686985 3.46477 0.749217 3.96017 0.991075C4.3056 1.16537 4.58991 1.44025 4.77547 1.77938C4.96104 2.1185 5.03912 2.50587 4.9994 2.89027C4.97435 3.29261 4.81856 3.67583 4.55567 3.98179C4.29277 4.28774 3.9371 4.49975 3.54262 4.58564C3.33848 4.64123 3.10651 4.65976 2.87454 4.69681Z" fill="currentColor"></path></g><defs><clipPath id="clip0_406_3139"><rect width="17.25" height="18" fill="white" transform="translate(0.75)"></rect></clipPath></defs></svg>