<svg width="15" height="18" viewBox="0 0 15 18" fill="none" xmlns="http://www.w3.org/2000/svg"><g clip-path="url(#clip0_406_3137)"><path d="M6.38449 11.9047C5.90434 14.3794 5.31641 16.7193 3.58199 18C3.04305 14.2542 4.37571 11.4425 4.98324 8.4574C3.90536 6.74339 5.08123 3.22871 7.29579 4.08571C10.0199 5.14493 4.93425 10.5373 8.35408 11.2114C11.7739 11.8854 13.3711 5.14493 11.1566 2.93983C7.96212 -0.247453 1.86718 2.89169 2.6217 7.41744C2.79808 8.53443 3.97395 8.87146 3.08225 10.4121C1.04407 9.96919 0.436532 8.38037 0.505124 6.27156C0.625473 4.68298 1.31446 3.18763 2.4499 2.0507C3.58534 0.913776 5.09383 0.208757 6.70786 0.0606829C10.5588 -0.363005 14.1649 1.4473 14.6646 5.01012C15.2329 9.02553 12.9302 13.3683 8.78523 13.0506C7.69755 12.9735 7.237 12.4247 6.38449 11.9047Z" fill="currentColor"></path></g><defs><clipPath id="clip0_406_3137"><rect width="14.25" height="18" fill="white" transform="translate(0.5)"></rect></clipPath></defs></svg>