<svg width="17" height="18" viewBox="0 0 17 18" fill="none" xmlns="http://www.w3.org/2000/svg"><g clip-path="url(#clip0_406_3135)"><path d="M5.95739 17.9925C5.6017 17.9452 5.24953 17.875 4.90312 17.7823C3.84255 17.5161 2.88717 16.9414 2.16061 16.1325C1.43406 15.3236 0.96977 14.3177 0.827828 13.245C0.704058 12.5147 0.728106 11.7673 0.89858 11.0462C1.06905 10.3251 1.38256 9.64467 1.82095 9.04423C2.25933 8.44379 2.81387 7.93533 3.45243 7.54831C4.091 7.16129 4.8009 6.90339 5.541 6.78957C6.10453 6.70196 6.67845 6.70196 7.24199 6.78957C7.33944 6.78957 7.38374 6.78957 7.38374 6.93848C7.38374 7.98081 7.38374 9.01439 7.38374 10.048C7.00279 10.048 6.62184 9.97789 6.24974 9.99541C5.64017 10.0501 5.07144 10.3218 4.64936 10.7601C4.22728 11.1983 3.98059 11.7733 3.95517 12.3779C3.92044 12.9628 4.08848 13.5419 4.43156 14.0197C4.77464 14.4974 5.27224 14.8452 5.84221 15.0056C6.47249 15.1585 7.13756 15.0781 7.71202 14.7796C8.28648 14.4811 8.73063 13.9851 8.9607 13.3852C9.01388 13.197 9.04071 13.0025 9.04043 12.8071C9.04043 12.1852 9.04043 11.5545 9.04043 10.9326C9.04043 7.35892 9.04043 3.78811 9.04043 0.22023C9.03609 0.144378 9.03609 0.0683444 9.04043 -0.00750732H11.9906C11.9906 0.228989 11.9906 0.456726 12.0703 0.693223C12.1665 1.43517 12.4646 2.1374 12.9326 2.7251C13.4007 3.3128 14.0212 3.76394 14.7281 4.03045C15.2863 4.24067 15.871 4.35454 16.5 4.52096V7.4903C14.9117 7.45846 13.3692 6.95825 12.0703 6.05381V6.2903C12.0703 8.28738 12.0703 10.2786 12.0703 12.264C12.072 12.6581 12.0334 13.0513 11.9552 13.4377C11.7571 14.4919 11.2542 15.4666 10.5073 16.2439C9.7604 17.0212 8.80159 17.5677 7.74697 17.8173C7.42563 17.8912 7.10025 17.9468 6.77244 17.9837L5.95739 17.9925Z" fill="currentColor"></path></g><defs><clipPath id="clip0_406_3135"><rect width="15.75" height="18" fill="white" transform="translate(0.75)"></rect></clipPath></defs></svg>