<svg width="19" height="18" viewBox="0 0 19 18" fill="none" xmlns="http://www.w3.org/2000/svg"><g clip-path="url(#clip0_406_3128)"><path d="M18.2416 3.27394C17.5649 3.57799 16.8486 3.77984 16.1151 3.87317C16.8857 3.39665 17.4623 2.65199 17.7393 1.77584C17.0143 2.2212 16.2178 2.53134 15.3867 2.69182C14.8801 2.14087 14.2236 1.7578 13.502 1.59203C12.7804 1.42625 12.0268 1.48539 11.3383 1.7618C10.6499 2.03821 10.0583 2.51921 9.63977 3.14275C9.22128 3.76629 8.99511 4.50375 8.99047 5.25998C8.99224 5.54781 9.0231 5.83469 9.08256 6.11603C7.61258 6.03923 6.17478 5.64747 4.86233 4.96616C3.54989 4.28484 2.39209 3.32917 1.46395 2.16107C1.1128 2.74243 0.927243 3.41244 0.92814 4.09575C0.931467 4.72133 1.0861 5.33635 1.37825 5.886C1.6704 6.43566 2.09099 6.90288 2.60256 7.24603C2.0157 7.22777 1.44161 7.06634 0.92814 6.7752V6.818C0.927235 7.69215 1.22304 8.53953 1.76506 9.21553C2.30708 9.89153 3.06174 10.3542 3.90023 10.5247C3.58182 10.6181 3.25194 10.6642 2.9207 10.6617C2.68752 10.6605 2.45492 10.6376 2.22581 10.5932C2.46168 11.3455 2.92194 12.0035 3.54204 12.4748C4.16213 12.9461 4.91096 13.2072 5.68349 13.2213C4.37136 14.2708 2.75311 14.8404 1.08721 14.8392C0.807423 14.838 0.527921 14.8209 0.25 14.7879C1.93919 15.9035 3.90697 16.4979 5.91791 16.5C7.30029 16.5034 8.66962 16.2265 9.94669 15.6854C11.2238 15.1442 12.3832 14.3495 13.358 13.3472C14.3327 12.345 15.1035 11.155 15.6256 9.84619C16.1477 8.53738 16.4108 7.13571 16.3998 5.72225C16.3998 5.5596 16.3998 5.39695 16.3998 5.2343C17.1226 4.69505 17.7486 4.03178 18.25 3.27394" fill="currentColor"></path></g><defs><clipPath id="clip0_406_3128"><rect width="18" height="18" fill="white" transform="translate(0.25)"></rect></clipPath></defs></svg>