<svg width="20" height="15" viewBox="0 0 20 15" fill="none" xmlns="http://www.w3.org/2000/svg"><path d="M19.4417 2.57812C19.2568 1.54724 18.3759 0.796509 17.3536 0.562134C15.8238 0.234375 12.9926 0 9.92931 0C6.86786 0 3.9913 0.234375 2.45967 0.562134C1.43919 0.796509 0.556462 1.49963 0.371579 2.57812C0.184883 3.75 0 5.39062 0 7.5C0 9.60938 0.184883 11.25 0.416893 12.4219C0.603589 13.4528 1.4845 14.2035 2.50499 14.4379C4.12906 14.7656 6.91318 15 9.97644 15C13.0397 15 15.8238 14.7656 17.4479 14.4379C18.4684 14.2035 19.3493 13.5004 19.536 12.4219C19.7209 11.25 19.9529 9.56177 20 7.5C19.9057 5.39062 19.6737 3.75 19.4417 2.57812ZM7.42432 10.7812V4.21875L13.085 7.5L7.42432 10.7812Z" fill="currentColor"></path></svg>