<svg width="36" height="36" viewBox="0 0 36 36" fill="none" xmlns="http://www.w3.org/2000/svg"> <path d="M18.4889 15.8928H23.2121C23.2403 15.8926 23.2683 15.8984 23.294 15.9099C23.3198 15.9213 23.3428 15.9382 23.3615 15.9593C23.3802 15.9805 23.3941 16.0054 23.4024 16.0323C23.4106 16.0593 23.413 16.0877 23.4093 16.1157L22.9464 19.6045C22.9403 19.6531 22.9171 19.6979 22.881 19.7309C22.8449 19.7639 22.7981 19.7829 22.7492 19.7845H18.8575C18.8081 19.7848 18.7604 19.7663 18.7238 19.733C18.6873 19.6996 18.6647 19.6538 18.6604 19.6045L18.2918 16.1071C18.2894 16.0798 18.2927 16.0523 18.3015 16.0264C18.3104 16.0005 18.3245 15.9766 18.3431 15.9565C18.3616 15.9363 18.3842 15.9203 18.4093 15.9093C18.4344 15.8983 18.4615 15.8927 18.4889 15.8928Z" stroke-miterlimit="10" stroke-linecap="round"></path> <path d="M16.5528 10.2095C17.0071 10.0552 20.376 9.13802 20.796 13.3041C20.3074 13.4498 16.69 14.4099 16.5099 10.2781C16.5089 10.2636 16.5125 10.2492 16.5202 10.2368C16.5279 10.2245 16.5393 10.2149 16.5528 10.2095Z" stroke-miterlimit="10" stroke-linecap="round"></path> <path d="M16.5093 10.2781L20.7953 13.304V15.8928" stroke-miterlimit="10" stroke-linecap="round"></path> <path d="M25.6468 11.4866C25.5525 11.9581 24.7124 15.4127 20.8892 13.7068C20.8735 13.6994 20.8606 13.687 20.8529 13.6714C20.8451 13.6559 20.8428 13.6381 20.8464 13.6211C20.9578 13.1239 21.9265 9.51505 25.6039 11.4095C25.6181 11.4164 25.6298 11.4275 25.6374 11.4413C25.6451 11.4551 25.6484 11.4709 25.6468 11.4866Z" stroke-miterlimit="10" stroke-linecap="round"></path> <path d="M25.6042 11.4094L20.8467 13.6211" stroke-miterlimit="10" stroke-linecap="round"></path> <path d="M12.0259 24.5593V5.37486C12.0258 5.05941 12.0886 4.74708 12.2106 4.45617C12.3327 4.16526 12.5114 3.90159 12.7364 3.68052C12.9615 3.45945 13.2283 3.28545 13.5214 3.16869C13.8144 3.0519 14.1278 2.99469 14.4432 3.00039H27.3786C28.0068 3.00267 28.6086 3.25383 29.052 3.69888C29.4955 4.14393 29.7444 4.7466 29.7444 5.37486V29.2911C29.7444 29.9193 29.4955 30.522 29.052 30.9672C28.6086 31.4121 28.0068 31.6632 27.3786 31.6656H14.4432C14.0552 31.6662 13.6731 31.5711 13.3306 31.3887C12.9882 31.2063 12.6961 30.9423 12.4802 30.6198" stroke-miterlimit="10" stroke-linecap="round"></path> <path d="M20.8896 27.9795C21.5288 27.9795 22.0469 27.4614 22.0469 26.8223C22.0469 26.1831 21.5288 25.665 20.8896 25.665C20.2505 25.665 19.7324 26.1831 19.7324 26.8223C19.7324 27.4614 20.2505 27.9795 20.8896 27.9795Z" fill="#00AB84" stroke-miterlimit="10"></path> <path d="M12.0269 22.7506C11.9497 23.546 11.9497 24.3469 12.0269 25.1423C12.8742 24.6864 13.6827 24.1617 14.4442 23.5736C15.0713 23.1139 15.6335 22.5719 16.1158 21.962L16.2015 21.8592L16.4672 21.5505C16.4672 21.5505 16.6044 21.3963 16.7587 21.2505C16.9759 21.0384 17.2335 20.8722 17.5163 20.7618C17.799 20.6514 18.1011 20.5989 18.4045 20.6076C18.6296 20.6241 18.8492 20.6848 19.0507 20.7863C19.2522 20.8878 19.4317 21.0281 19.5789 21.1991C19.6323 21.2699 19.6756 21.3478 19.7075 21.4305C19.7499 21.5457 19.7703 21.6678 19.7675 21.7906C19.7675 22.082 19.5275 22.2963 19.0646 22.8106L18.636 23.2907C18.5074 23.4536 18.4388 23.5479 17.8988 24.2765C17.5988 24.6879 17.3759 25.0137 17.2473 25.2023C16.6987 26.0595 16.0729 27.0024 16.0729 27.0024C15.6529 27.671 15.5757 27.7996 15.3443 28.1253C14.25 29.1259 13.0776 30.0373 11.8383 30.8512C11.723 31.6177 11.6572 32.3908 11.6411 33.1657" stroke-miterlimit="10" stroke-linecap="round"></path> <path d="M6 33.0797C6.07716 32.4026 6.45432 29.0252 6.56577 28.2538C7.01697 25.2202 7.93962 22.2759 9.30027 19.5273C9.59448 18.9298 9.93558 18.3565 10.3204 17.8129C11.7862 17.0243 12.1034 17.1443 11.8033 17.3071" stroke-miterlimit="10" stroke-linecap="round"></path> </svg>