<svg width="28" height="28" viewBox="0 0 28 28" fill="none" xmlns="http://www.w3.org/2000/svg"> <path d="M14 7.875C10.6313 7.875 7.875 10.6313 7.875 14C7.875 17.3687 10.6313 20.125 14 20.125C17.3688 20.125 20.0813 17.3687 20.0813 14C20.0813 10.6313 17.3688 7.875 14 7.875ZM14 19.25C11.1125 19.25 8.75 16.8875 8.75 14C8.75 11.1125 11.1125 8.75 14 8.75C16.8875 8.75 19.2063 11.1125 19.2063 14C19.2063 16.8875 16.8875 19.25 14 19.25Z" fill="#00AB84"></path> <path d="M21.0438 4.4187C20.1251 4.4187 19.3813 5.16245 19.3813 6.0812C19.3813 6.99995 20.1251 7.7437 21.0438 7.7437C21.9626 7.7437 22.7063 6.99995 22.7063 6.0812C22.7063 5.16245 21.9626 4.4187 21.0438 4.4187Z" fill="#00AB84"></path> <path d="M21 0.4375H7C3.36875 0.4375 0.4375 3.36875 0.4375 7V21C0.4375 24.5875 3.36875 27.5625 7 27.5625H21C24.5875 27.5625 27.5625 24.6313 27.5625 21V7C27.5625 3.36875 24.6313 0.4375 21 0.4375ZM26.6875 21C26.6875 24.15 24.15 26.6875 21 26.6875H7C3.85 26.6875 1.3125 24.15 1.3125 21V7C1.3125 3.85 3.85 1.3125 7 1.3125H21C24.15 1.3125 26.6875 3.85 26.6875 7V21Z" fill="#00AB84"></path> </svg>