<!DOCTYPE svg PUBLIC "-//W3C//DTD SVG 1.1//EN" "http://www.w3.org/Graphics/SVG/1.1/DTD/svg11.dtd">
<!-- Uploaded to: SVG Repo, www.svgrepo.com, Transformed by: SVG Repo Mixer Tools -->
<svg height="800px" width="800px" version="1.1" id="Layer_1" xmlns="http://www.w3.org/2000/svg" xmlns:xlink="http://www.w3.org/1999/xlink" viewBox="0 0 512 512" xml:space="preserve" fill="#000000">
<g id="SVGRepo_bgCarrier" stroke-width="0"/>
<g id="SVGRepo_tracerCarrier" stroke-linecap="round" stroke-linejoin="round"/>
<g id="SVGRepo_iconCarrier"> <path style="fill:#211E48;" d="M30.89,421.901c-8.054,0-14.582-6.53-14.582-14.582V55.112C16.308,24.724,41.031,0,71.419,0h229.915 c30.389,0,55.112,24.724,55.112,55.112V283.68c0,8.052-6.528,14.582-14.582,14.582c-8.054,0-14.582-6.53-14.582-14.582V55.112 c0-14.309-11.641-25.949-25.949-25.949H71.419c-14.308,0-25.947,11.639-25.947,25.949v352.207 C45.472,415.373,38.942,421.901,30.89,421.901z"/> <path style="fill:#B0DACC;" d="M30.889,402.586v54.302c0,22.385,18.146,40.531,40.531,40.531h229.915 c22.385,0,40.531-18.146,40.531-40.531v-54.302L30.889,402.586"/> <g> <path style="fill:#211E48;" d="M301.334,512H71.419c-30.389,0-55.111-24.724-55.111-55.112v-54.302 c0-8.052,6.528-14.582,14.582-14.582h310.976c8.054,0,14.582,6.53,14.582,14.582v54.302C356.447,487.276,331.725,512,301.334,512z M45.472,417.168v39.72c0,14.309,11.639,25.949,25.947,25.949h229.915c14.308,0,25.949-11.639,25.949-25.949v-39.72H45.472z"/> <path style="fill:#211E48;" d="M210.419,464.343h-46.834c-8.054,0-14.582-6.53-14.582-14.582c0-8.052,6.528-14.582,14.582-14.582 h46.834c8.054,0,14.582,6.53,14.582,14.582C225.001,457.814,218.472,464.343,210.419,464.343z"/> <path style="fill:#211E48;" d="M341.865,435.344c-8.054,0-14.582-6.53-14.582-14.582V353.97c0-8.052,6.528-14.582,14.582-14.582 c8.054,0,14.582,6.53,14.582,14.582v66.793C356.447,428.814,349.919,435.344,341.865,435.344z"/> <path style="fill:#211E48;" d="M443.389,348.647c-4.153,0-8.275-1.763-11.16-5.188c-5.188-6.159-4.401-15.358,1.759-20.547 c2.039-1.718,3.994-3.508,5.812-5.327c35.657-35.657,35.657-93.679-0.001-129.338c-5.694-5.694-5.694-14.928,0-20.623 c5.694-5.693,14.926-5.691,20.622,0c47.028,47.031,47.028,123.553,0,170.584c-2.403,2.402-4.975,4.761-7.645,7.01 C450.041,347.521,446.705,348.647,443.389,348.647z"/> <path style="fill:#211E48;" d="M403.404,328.187c-4.313,0-8.581-1.903-11.46-5.553c-4.987-6.323-3.904-15.492,2.421-20.479 c1.95-1.54,3.819-3.196,5.553-4.93c24.431-24.432,24.431-64.19-0.003-88.622c-5.694-5.694-5.694-14.928,0-20.623 c5.694-5.693,14.928-5.693,20.623,0c35.805,35.805,35.805,94.064,0,129.871c-2.542,2.539-5.268,4.961-8.112,7.202 C409.748,327.165,406.564,328.187,403.404,328.187z"/> </g> </g>
</svg>