<svg width="36" height="36" viewBox="0 0 36 36" fill="none" xmlns="http://www.w3.org/2000/svg"> <path d="M20.3675 24.1899H25.0437C25.072 24.1912 25.0998 24.1982 25.1254 24.2105C25.151 24.2228 25.1738 24.2402 25.1924 24.2616C25.211 24.283 25.2251 24.308 25.2337 24.335C25.2423 24.362 25.2454 24.3906 25.2427 24.4188L24.7751 27.8712C24.7701 27.9178 24.748 27.9609 24.7131 27.9922C24.6782 28.0235 24.6329 28.0406 24.586 28.0404H20.7356C20.6861 28.0406 20.6383 28.0224 20.6015 27.9893C20.5647 27.9562 20.5416 27.9105 20.5366 27.8613L20.1685 24.4088C20.1657 24.3811 20.1688 24.3531 20.1775 24.3266C20.1863 24.3001 20.2005 24.2757 20.2192 24.2551C20.238 24.2344 20.2609 24.218 20.2864 24.2067C20.312 24.1955 20.3396 24.1898 20.3675 24.1899Z" stroke-miterlimit="10" stroke-linecap="round"></path> <path d="M18.4586 18.5685C18.9064 18.4192 22.2394 17.5038 22.6573 21.6329C22.1698 21.7821 18.5979 22.7273 18.4089 18.648C18.4077 18.6312 18.4118 18.6144 18.4208 18.6001C18.4297 18.5858 18.443 18.5747 18.4586 18.5685Z" stroke-miterlimit="10" stroke-linecap="round"></path> <path d="M18.4082 18.6382L22.6566 21.633V24.19" stroke-miterlimit="10" stroke-linecap="round"></path> <path d="M27.4526 19.842C27.3531 20.3096 26.5273 23.7322 22.7465 22.0309C22.7393 22.0207 22.7354 22.0086 22.7354 21.9961C22.7354 21.9836 22.7393 21.9714 22.7465 21.9613C22.856 21.4638 23.8112 17.8919 27.4526 19.7624C27.4588 19.7748 27.462 19.7884 27.462 19.8022C27.462 19.8161 27.4588 19.8297 27.4526 19.842Z" stroke-miterlimit="10" stroke-linecap="round"></path> <path d="M27.4131 19.7524L22.707 21.9513" stroke-miterlimit="10" stroke-linecap="round"></path> <path d="M35.5009 10.1911L32.7547 4.5H3.21499L0.458994 10.1911L0.299805 10.5094V12.161C0.32052 12.7927 0.586767 13.3914 1.04196 13.8299C1.49715 14.2684 2.10539 14.512 2.73741 14.5091C2.84264 14.5285 2.95056 14.5285 3.05578 14.5091V31.2042H32.9836V14.5091H33.2224C33.8605 14.5199 34.4776 14.2801 34.9408 13.8411C35.404 13.402 35.6764 12.7988 35.6998 12.161V10.5094L35.5009 10.1911ZM32.2771 5.286L34.6351 10.1911H31.2226L30.3172 7.71366L29.4516 5.286H32.2771ZM17.5919 12.161C17.5919 13.0167 16.5969 13.7231 15.7015 13.7231C15.2727 13.734 14.8567 13.5766 14.5425 13.2847C14.2282 12.9928 14.0407 12.5895 14.02 12.161V10.9771H17.562L17.5919 12.161ZM13.2639 12.161C13.19 12.6037 12.9594 13.005 12.6141 13.2918C12.2689 13.5785 11.8321 13.7316 11.3835 13.7231C10.9598 13.7262 10.5513 13.5653 10.2435 13.2742C9.93571 12.9831 9.75239 12.5842 9.73184 12.161V10.9771H13.2639V12.161ZM8.94584 12.161C8.94584 13.0167 7.95092 13.7231 7.05545 13.7231C6.6335 13.7236 6.22756 13.5616 5.92189 13.2707C5.61619 12.9799 5.43424 12.5825 5.41381 12.161V10.9771H8.94584V12.161ZM18.3779 10.9771H21.9099V12.161C21.8796 12.5877 21.6877 12.9868 21.3735 13.277C21.0593 13.5672 20.6463 13.7267 20.2185 13.7231C19.7761 13.7241 19.3478 13.5674 19.0105 13.2811C18.6731 12.9949 18.4488 12.5977 18.3779 12.161V10.9771ZM22.6959 10.9771H26.228V12.161C26.1976 12.5877 26.0058 12.9868 25.6916 13.277C25.3773 13.5672 24.9643 13.7267 24.5366 13.7231C24.0941 13.7241 23.6658 13.5674 23.3285 13.2811C22.9912 12.9949 22.7669 12.5977 22.6959 12.161V10.9771ZM27.014 10.9771H30.5461V12.161C30.5158 12.586 30.3253 12.9836 30.0133 13.2736C29.7011 13.5635 29.2906 13.7242 28.8645 13.7231C28.421 13.7245 27.9913 13.5681 27.6523 13.282C27.3134 12.9958 27.0871 12.5986 27.014 12.161V10.9771ZM28.586 5.286L29.4914 7.75347L30.3967 10.2309H26.9543L26.3673 7.75347L25.7604 5.286H28.586ZM22.0691 5.286H24.9644L25.5514 7.75347L26.1384 10.2309H22.6561L22.3377 7.75347L22.0691 5.286ZM18.3779 5.286H21.2831L21.5916 7.75347L21.9099 10.2309H18.3779V5.286ZM17.5919 5.286V10.1911H14.0897L14.4081 7.71366L14.7165 5.24622H17.5919V5.286ZM11.0253 5.286H13.8907L13.5823 7.75347L13.2639 10.2309H9.85124L10.4382 7.75347L11.0253 5.286ZM7.37383 5.286H10.2393L9.65225 7.75347L9.04535 10.2309H5.56304L6.46843 7.75347L7.37383 5.286ZM3.6826 5.286H6.50824L5.60284 7.75347L4.70741 10.2309H1.32459L3.6826 5.286ZM2.68766 13.7231C2.27263 13.7135 1.87664 13.5471 1.57942 13.2572C1.2822 12.9674 1.10583 12.5757 1.08581 12.161V10.9771H4.62779V12.161C4.60684 12.4124 4.52413 12.6548 4.387 12.8665C4.24987 13.0783 4.06261 13.2529 3.84178 13.3749C3.60739 13.5375 3.33823 13.6432 3.05578 13.6833C2.95302 13.7161 2.84508 13.7296 2.73741 13.7231H2.68766ZM6.66743 30.4182V16.2801H13.1445V30.4182H6.66743ZM32.1181 30.4182H14.02V15.4941H5.92124V30.4182H3.84178V14.2803C4.29712 14.0905 4.69009 13.7768 4.97603 13.3749C5.20361 13.7194 5.51213 14.003 5.87462 14.2007C6.23713 14.3984 6.64256 14.5043 7.05545 14.5091C7.49032 14.503 7.91807 14.3977 8.30606 14.2011C8.69401 14.0045 9.03193 13.7219 9.29408 13.3749C9.52322 13.7202 9.83345 14.0041 10.1977 14.2019C10.5619 14.3996 10.969 14.5051 11.3835 14.5091C11.8181 14.5015 12.2453 14.3956 12.633 14.1991C13.0208 14.0026 13.3589 13.7208 13.6221 13.3749C13.8477 13.7213 14.1558 14.0062 14.5188 14.2042C14.8817 14.4022 15.2881 14.5069 15.7015 14.5091C16.149 14.503 16.5891 14.3939 16.9876 14.1903C17.3862 13.9867 17.7325 13.6941 17.9998 13.3351C18.2599 13.6873 18.5965 13.976 18.9842 14.1793C19.372 14.3827 19.8008 14.4954 20.2384 14.5091C20.6518 14.5069 21.0582 14.4022 21.4212 14.2042C21.7841 14.0062 22.0922 13.7213 22.3179 13.3749C22.581 13.7208 22.9191 14.0026 23.3069 14.1991C23.6946 14.3956 24.1219 14.5015 24.5565 14.5091C24.9709 14.5051 25.378 14.3996 25.7422 14.2019C26.1065 14.0041 26.4167 13.7202 26.6458 13.3749C26.908 13.7219 27.2459 14.0045 27.6339 14.2011C28.0218 14.3977 28.4496 14.503 28.8845 14.5091C29.2924 14.5003 29.6922 14.3925 30.0493 14.1949C30.4063 13.9973 30.7099 13.7159 30.934 13.3749C31.249 13.7906 31.6675 14.1165 32.1478 14.3201L32.1181 30.4182ZM34.9138 12.161C34.8835 12.5877 34.6915 12.9868 34.3774 13.277C34.063 13.5672 33.6502 13.7267 33.2224 13.7231C33.1438 13.7421 33.0622 13.7421 32.9836 13.7231C32.7082 13.6788 32.4424 13.588 32.1976 13.4545C31.9651 13.3324 31.7674 13.1534 31.6231 12.9341C31.4785 12.7149 31.3921 12.4626 31.3717 12.2008V10.9771H34.9138V12.161Z" fill="#00AB84"></path> <path d="M15.4229 28.7967H30.4366V15.5342H15.4229V28.7967ZM16.2089 16.3003H29.6505V28.0306H16.2089V16.3003Z" fill="#00AB84"></path> <path d="M12.04 21.832V23.4538" stroke-width="2" stroke-miterlimit="10" stroke-linecap="round"></path> </svg>